<svg width="189" height="197" viewBox="0 0 189 197" fill="none" xmlns="http://www.w3.org/2000/svg">
<path d="M90 14.775C90 6.615 96.6516 -0.113419 104.72 1.10605C117.693 3.06681 130.195 7.60779 141.466 14.5149C156.955 24.0064 169.517 37.5963 177.764 53.7819C186.011 69.9676 189.622 88.1186 188.196 106.228C186.771 124.338 180.366 141.701 169.688 156.397C159.011 171.093 144.477 182.55 127.694 189.502C110.911 196.454 92.5332 198.629 74.5912 195.787C56.6493 192.946 39.8426 185.198 26.0294 173.4C15.9772 164.815 7.79524 154.328 1.92156 142.596C-1.73149 135.299 2.61217 126.894 10.3728 124.372V124.372C18.1334 121.851 26.3412 126.217 30.4554 133.264C34.3349 139.909 39.317 145.888 45.2206 150.93C54.8898 159.188 66.6545 164.612 79.2138 166.601C91.7732 168.59 104.638 167.068 116.386 162.201C128.134 157.335 138.307 149.315 145.782 139.028C153.256 128.74 157.74 116.586 158.737 103.91C159.735 91.233 157.208 78.5273 151.435 67.1974C145.662 55.8674 136.868 46.3545 126.026 39.7105C119.407 35.6539 112.181 32.7633 104.662 31.127C96.689 29.3917 90 22.935 90 14.775V14.775Z" fill="url(#paint0_linear_201_85)"/>
<defs>
<linearGradient id="paint0_linear_201_85" x1="-8.5" y1="82" x2="145.5" y2="178" gradientUnits="userSpaceOnUse">
<stop stop-color="#CE9FFC"/>
<stop offset="1" stop-color="#7367F0"/>
</linearGradient>
</defs>
</svg>
